STARTFONT 2.1
FONT PX Numeral 16x32
SIZE 32 75 75
FONTBOUNDINGBOX 32 32 0 0
STARTPROPERTIES 2
FONT_ASCENT 30
FONT_DESCENT 0
ENDPROPERTIES
CHARS 53
STARTCHAR A
ENCODING 65
SWIDTH 500 0
DWIDTH 16 0
BBX 14 30 1 0
BITMAP
3FF0
7FF8
FFFC
FFFC
FFFC
FFFC
FCFC
FCFC
FCFC
FCFC
FCFC
FCFC
FCFC
FCFC
FCFC
FCFC
FCFC
FCFC
FB7C
FFFC
FFFC
FFFC
FFFC
FFFC
F87C
FCFC
FCFC
FCFC
FCFC
FCFC
ENDCHAR
STARTCHAR B
ENCODING 66
SWIDTH 500 0
DWIDTH 16 0
BBX 14 30 1 0
BITMAP
FFF0
FFF8
FFFC
FFFC
FFFC
FFFC
FCFC
FCFC
FCFC
FCFC
FCFC
FCFC
FCF8
FF80
FDF0
FCF8
FCFC
FCFC
FCFC
FCFC
FCFC
FCFC
FCFC
FCFC
FFFC
FFFC
FFFC
FFFC
FFF8
FFF0
ENDCHAR
STARTCHAR C
ENCODING 67
SWIDTH 500 0
DWIDTH 16 0
BBX 14 30 1 0
BITMAP
3FF0
7FF8
FFFC
FFFC
FFFC
FFFC
FCFC
FCFC
FCFC
FCFC
FCFC
FCFC
FCFC
FC00
FCFC
FCFC
FCFC
FCFC
FCFC
FCFC
FCFC
FCFC
FCFC
FCFC
FFFC
FFFC
FFFC
FFFC
7FF8
3FF0
ENDCHAR
STARTCHAR D
ENCODING 68
SWIDTH 500 0
DWIDTH 16 0
BBX 14 30 1 0
BITMAP
FFF0
FFF8
FFFC
FFFC
FFFC
FBFC
FCFC
FCFC
FCFC
FCFC
FCFC
FCFC
FCFC
FCFC
FCFC
FCFC
FCFC
FCFC
FCFC
FCFC
FCFC
FCFC
FCFC
FCFC
FBFC
FFFC
FFFC
FFFC
FFF8
FFF0
ENDCHAR
STARTCHAR E
ENCODING 69
SWIDTH 500 0
DWIDTH 16 0
BBX 14 30 1 0
BITMAP
FFFC
FFFC
FFFC
FFFC
FFFC
FFFC
FCFC
FCFC
FCFC
FCFC
FCFC
FC00
FFF0
FFF0
FFF0
FFF0
FFF0
FFF0
FC00
FCFC
FCFC
FCFC
FCFC
FCFC
FFFC
FFFC
FFFC
FFFC
FFFC
FFFC
ENDCHAR
STARTCHAR F
ENCODING 70
SWIDTH 500 0
DWIDTH 16 0
BBX 14 30 1 0
BITMAP
FFFC
FFFC
FFFC
FFFC
FFFC
FFFC
FCFC
FCFC
FCFC
FCFC
FCFC
FCFC
FCFC
FCFC
FC00
FFF0
FFF0
FFF0
FFF0
FFF0
FFF0
FC00
FC00
FC00
FC00
FC00
FC00
FC00
FC00
FC00
ENDCHAR
STARTCHAR G
ENCODING 71
SWIDTH 500 0
DWIDTH 16 0
BBX 14 30 1 0
BITMAP
3FF0
7FF8
FFFC
FFFC
FFFC
FFFC
FCFC
FCFC
FCFC
FCFC
FCFC
FCFC
FCFC
FC00
FDFC
FDFC
FDFC
FDFC
FDFC
FDFC
FC3C
FCFC
FCFC
FCFC
FFFC
FFFC
FFFC
FFFC
7FBC
3F7C
ENDCHAR
STARTCHAR H
ENCODING 72
SWIDTH 500 0
DWIDTH 16 0
BBX 14 30 1 0
BITMAP
FCFC
FCFC
FCFC
FCFC
FCFC
FCFC
FCFC
FCFC
FCFC
FCFC
FCFC
FCFC
FCFC
FFFC
F87C
FCFC
FCFC
FCFC
FCFC
FCFC
FCFC
FCFC
FCFC
FCFC
FCFC
FCFC
FCFC
FCFC
FCFC
FCFC
ENDCHAR
STARTCHAR I
ENCODING 73
SWIDTH 500 0
DWIDTH 16 0
BBX 14 30 1 0
BITMAP
FFFC
FFFC
FFFC
FFFC
FFFC
F7BC
0FC0
0FC0
0FC0
0FC0
0FC0
0FC0
0FC0
0FC0
0FC0
0FC0
0FC0
0FC0
0FC0
0FC0
0FC0
0FC0
0FC0
0FC0
F7BC
FFFC
FFFC
FFFC
FFFC
FFFC
ENDCHAR
STARTCHAR J
ENCODING 74
SWIDTH 500 0
DWIDTH 16 0
BBX 14 30 2 0
BITMAP
3FFC
3FFC
3FFC
3FFC
3FFC
3FFC
00FC
00FC
00FC
00FC
00FC
00FC
00FC
00FC
00FC
00FC
FCFC
FCFC
FCFC
FCFC
FCFC
FCFC
FCFC
FCFC
FB7C
FFFC
FFFC
FFFC
7FF8
3FF0
ENDCHAR
STARTCHAR K
ENCODING 75
SWIDTH 500 0
DWIDTH 16 0
BBX 14 30 1 0
BITMAP
FCFC
FCFC
FCFC
FCFC
FCFC
FCFC
FCFC
FCFC
FCFC
FDF8
FDF8
FDF8
FDF8
FFF0
FFF0
FF80
FFF0
FFF0
FFF0
FDF8
FDF8
FDF8
FDF8
FCFC
FCFC
FCFC
FCFC
FCFC
FCFC
FCFC
ENDCHAR
STARTCHAR L
ENCODING 76
SWIDTH 500 0
DWIDTH 16 0
BBX 14 30 1 0
BITMAP
FC00
FC00
FC00
FC00
FC00
FC00
FC00
FC00
FC00
FC00
FC00
FC00
FC00
FC00
FC00
FC00
FCFC
FCFC
FCFC
FCFC
FCFC
FCFC
FCFC
FCFC
F87C
FFFC
FFFC
FFFC
FFFC
FFFC
ENDCHAR
STARTCHAR M
ENCODING 77
SWIDTH 500 0
DWIDTH 16 0
BBX 14 30 1 0
BITMAP
F03C
F03C
F87C
F87C
FCFC
FCFC
FEFC
FEFC
FF7C
FF7C
FFFC
FFFC
FFFC
FFFC
FFFC
F7BC
FB7C
F87C
FCFC
FCFC
FCFC
FCFC
FCFC
FCFC
FCFC
FCFC
FCFC
FCFC
FCFC
FCFC
ENDCHAR
STARTCHAR N
ENCODING 78
SWIDTH 500 0
DWIDTH 16 0
BBX 14 30 1 0
BITMAP
F0FC
F0FC
F8FC
F8FC
FCFC
FCFC
FEFC
FEFC
FF7C
FF7C
FFBC
FFBC
FFFC
FFFC
F7FC
F7FC
FBFC
FBFC
FDFC
FDFC
FCFC
FCFC
FCFC
FCFC
FCFC
FCFC
FCFC
FCFC
FCFC
FCFC
ENDCHAR
STARTCHAR O
ENCODING 79
SWIDTH 500 0
DWIDTH 16 0
BBX 14 30 1 0
BITMAP
3FF0
7FF8
FFFC
FFFC
FFFC
FFFC
FCFC
FCFC
FCFC
FCFC
FCFC
FCFC
FCFC
FCFC
FCFC
FCFC
FCFC
FCFC
FCFC
FCFC
FCFC
FCFC
FCFC
FCFC
FFFC
FFFC
FFFC
FFFC
7FF8
3FF0
ENDCHAR
STARTCHAR P
ENCODING 80
SWIDTH 500 0
DWIDTH 16 0
BBX 14 30 1 0
BITMAP
FFF0
FFF8
FFFC
FFFC
FFFC
FFFC
FCFC
FCFC
FCFC
FCFC
FCFC
FCFC
FCFC
FFFC
FFFC
FFFC
FFFC
FFF8
FFF0
FC00
FC00
FC00
FC00
FC00
FC00
FC00
FC00
FC00
FC00
FC00
ENDCHAR
STARTCHAR Q
ENCODING 81
SWIDTH 500 0
DWIDTH 16 0
BBX 14 30 1 0
BITMAP
3FF0
7FF8
FFFC
FFFC
FFFC
FFFC
FCFC
FCFC
FCFC
FCFC
FCFC
FCFC
FCFC
FCFC
FCFC
FCFC
FCFC
FCFC
FCFC
FCFC
FCFC
FCFC
FCFC
FCE8
FFF0
FFF8
FFFC
FDFC
7EFC
3C7C
ENDCHAR
STARTCHAR R
ENCODING 82
SWIDTH 500 0
DWIDTH 16 0
BBX 14 30 1 0
BITMAP
FFF0
FFF8
FFFC
FFFC
FFFC
FFFC
FCFC
FCFC
FCFC
FCFC
FCFC
FCFC
FCFC
FFF8
FFF0
FF80
FFF0
FFF8
FFFC
FCFC
FCFC
FCFC
FCFC
FCFC
FCFC
FCFC
FCFC
FCFC
FCFC
FCFC
ENDCHAR
STARTCHAR S
ENCODING 83
SWIDTH 500 0
DWIDTH 16 0
BBX 14 30 1 0
BITMAP
3FF0
7FF8
FFFC
FFFC
FFFC
FFFC
FCFC
FCFC
FCFC
FCFC
FCFC
FCFC
FE00
FF80
7FF0
3FF8
07FC
01FC
FCFC
FCFC
FCFC
FCFC
FCFC
FCFC
FFFC
FFFC
FFFC
FFFC
7FF8
3FF0
ENDCHAR
STARTCHAR T
ENCODING 84
SWIDTH 500 0
DWIDTH 16 0
BBX 14 30 1 0
BITMAP
FFFC
FFFC
FFFC
FFFC
FFFC
F7BC
0FC0
0FC0
0FC0
0FC0
0FC0
0FC0
0FC0
0FC0
0FC0
0FC0
0FC0
0FC0
0FC0
0FC0
0FC0
0FC0
0FC0
0FC0
0FC0
0FC0
0FC0
0FC0
0FC0
0FC0
ENDCHAR
STARTCHAR U
ENCODING 85
SWIDTH 500 0
DWIDTH 16 0
BBX 14 30 1 0
BITMAP
FCFC
FCFC
FCFC
FCFC
FCFC
FCFC
FCFC
FCFC
FCFC
FCFC
FCFC
FCFC
FCFC
FCFC
FCFC
FCFC
FCFC
FCFC
FCFC
FCFC
FCFC
FCFC
FCFC
FCFC
FFFC
FFFC
FFFC
FFFC
7FF8
3FF0
ENDCHAR
STARTCHAR V
ENCODING 86
SWIDTH 500 0
DWIDTH 16 0
BBX 14 30 1 0
BITMAP
FCFC
FCFC
FCFC
FCFC
FCFC
FCFC
FCFC
FCFC
FCFC
FCFC
FCFC
FCFC
FCFC
FCFC
FCFC
FCFC
FCFC
FCFC
FCFC
FCFC
FCFC
FCFC
7DF8
7DF8
3FF0
3FF0
1FE0
1FE0
0FC0
0FC0
ENDCHAR
STARTCHAR W
ENCODING 87
SWIDTH 500 0
DWIDTH 16 0
BBX 14 30 1 0
BITMAP
FCFC
FCFC
FCFC
FCFC
FCFC
FCFC
FCFC
FCFC
FCFC
FCFC
FCFC
FCFC
F87C
FB7C
F7BC
FFFC
FFFC
FFFC
FFFC
FFFC
FBFC
FBFC
FDFC
FDFC
FCFC
FCFC
F87C
F87C
F03C
F03C
ENDCHAR
STARTCHAR X
ENCODING 88
SWIDTH 500 0
DWIDTH 16 0
BBX 14 30 1 0
BITMAP
FCFC
FCFC
FCFC
FCFC
FCFC
FCFC
FCFC
FCFC
FCFC
FCFC
FCFC
FCFC
FEF8
FF80
7FF0
3FF8
07FC
7DFC
FCFC
FCFC
FCFC
FCFC
FCFC
FCFC
FCFC
FCFC
FCFC
FCFC
FCFC
FCFC
ENDCHAR
STARTCHAR Y
ENCODING 89
SWIDTH 500 0
DWIDTH 16 0
BBX 14 30 1 0
BITMAP
FCFC
FCFC
FCFC
FCFC
FCFC
FCFC
FCFC
FCFC
FCFC
FCFC
FCFC
FCFC
FCFC
FCFC
FEFC
FF7C
7FB8
3FF0
1FE0
07C0
0FC0
0FC0
0FC0
0FC0
0FC0
0FC0
0FC0
0FC0
0FC0
0FC0
ENDCHAR
STARTCHAR Z
ENCODING 90
SWIDTH 500 0
DWIDTH 16 0
BBX 14 30 1 0
BITMAP
FFFC
FFFC
FFFC
FFFC
FFFC
FEFC
01FC
01FC
03F8
03F8
07F0
07F0
0FE0
0FE0
1FC0
1FC0
3F80
3F80
7F00
7F00
FE00
FE00
FC00
FC00
FBFC
FFFC
FFFC
FFFC
FFFC
FFFC
ENDCHAR
STARTCHAR zero
ENCODING 48
SWIDTH 500 0
DWIDTH 16 0
BBX 14 30 1 0
BITMAP
3FF0
7FF8
FFFC
FFFC
FFFC
FFFC
FC7C
FC7C
FC7C
FCFC
FCFC
FCFC
FDFC
FD7C
FD7C
FAFC
FAFC
FEFC
FCFC
FCFC
FCFC
F8FC
F8FC
F8FC
FFFC
FFFC
FFFC
FFFC
7FF8
3FF0
ENDCHAR
STARTCHAR one
ENCODING 49
SWIDTH 500 0
DWIDTH 16 0
BBX 14 30 1 0
BITMAP
0FC0
0FC0
1FC0
3FC0
FFC0
FFC0
FFC0
FFC0
FFC0
F7C0
0FC0
0FC0
0FC0
0FC0
0FC0
0FC0
0FC0
0FC0
0FC0
0FC0
0FC0
0FC0
0FC0
0FC0
F7BC
FFFC
FFFC
FFFC
FFFC
FFFC
ENDCHAR
STARTCHAR two
ENCODING 50
SWIDTH 500 0
DWIDTH 16 0
BBX 14 30 1 0
BITMAP
1FF8
3FFC
7FFE
7FFE
7FFE
7FFE
7E7E
7E7E
7E7E
7E7E
7E7E
7E7E
7E7E
00FC
1FF8
3F00
7E7E
7E7E
7E7E
7E7E
7E7E
7E7E
7E7E
7E7E
7FFE
7FFE
7FFE
7FFE
7FFE
7FFE
ENDCHAR
STARTCHAR three
ENCODING 51
SWIDTH 500 0
DWIDTH 16 0
BBX 14 30 1 0
BITMAP
1FF8
3FFC
7FFE
7FFE
7FFE
7FFE
7E7E
7E7E
7E7E
7E7E
7E7E
7E7E
7E7C
01E0
00F8
7E7C
7E7E
7E7E
7E7E
7E7E
7E7E
7E7E
7E7E
7E7E
7FFE
7FFE
7FFE
7FFE
3FFC
1FF8
ENDCHAR
STARTCHAR four
ENCODING 52
SWIDTH 500 0
DWIDTH 16 0
BBX 14 30 1 0
BITMAP
FCFC
FCFC
FCFC
FCFC
FCFC
FCFC
FCFC
FCFC
FCFC
FCFC
FCFC
FCFC
FCFC
FCFC
FCFC
FCFC
FBFC
F7FC
FFFC
FFFC
FFFC
FFFC
003C
00FC
00FC
00FC
00FC
00FC
00FC
00FC
ENDCHAR
STARTCHAR five
ENCODING 53
SWIDTH 500 0
DWIDTH 16 0
BBX 14 30 1 0
BITMAP
FFFC
FFFC
FFFC
FFFC
FFFC
FFFC
FCFC
FCFC
FCFC
FCFC
FC00
FBF0
F7F8
FFFC
FFFC
FFFC
FFFC
FCFC
00FC
FCFC
FCFC
FCFC
FCFC
FCFC
FFFC
FFFC
FFFC
FFFC
7FF8
3FF0
ENDCHAR
STARTCHAR six
ENCODING 54
SWIDTH 500 0
DWIDTH 16 0
BBX 14 30 1 0
BITMAP
3FF0
7FF8
FFFC
FFFC
FFFC
FFFC
FCFC
FCFC
FCFC
FCFC
FC00
FBF0
F7F8
FFFC
FFFC
FFFC
FFFC
FCFC
FCFC
FCFC
FCFC
FCFC
FCFC
FCFC
FFFC
FFFC
FFFC
FFFC
7FF8
3FF0
ENDCHAR
STARTCHAR seven
ENCODING 55
SWIDTH 500 0
DWIDTH 16 0
BBX 14 30 1 0
BITMAP
FFFC
FFFC
FFFC
FFFC
FFFC
FFFC
FCFC
FCFC
FCFC
FCFC
FCFC
FCFC
FCFC
01F8
07E0
07E0
0FC0
0FC0
0FC0
0FC0
0FC0
0FC0
0FC0
0FC0
0FC0
0FC0
0FC0
0FC0
0FC0
0FC0
ENDCHAR
STARTCHAR eight
ENCODING 56
SWIDTH 500 0
DWIDTH 16 0
BBX 14 30 1 0
BITMAP
3FF0
7FF8
FFFC
FFFC
FFFC
FFFC
FCFC
FCFC
FCFC
FCFC
FCFC
FCFC
FEF8
FF80
7FF0
3FF8
07FC
7DFC
FCFC
FCFC
FCFC
FCFC
FCFC
FCFC
FFFC
FFFC
FFFC
FFFC
7FF8
3FF0
ENDCHAR
STARTCHAR nine
ENCODING 57
SWIDTH 500 0
DWIDTH 16 0
BBX 14 30 1 0
BITMAP
3FF0
7FF8
FFFC
FFFC
FFFC
FFFC
FCFC
FCFC
FCFC
FCFC
FCFC
FCFC
FCFC
FFFC
FFFC
FFFC
FFFC
7FBC
3F7C
00FC
FCFC
FCFC
FCFC
FCFC
FFFC
FFFC
FFFC
FFFC
7FF8
3FF0
ENDCHAR
STARTCHAR space
ENCODING 32
SWIDTH 500 0
DWIDTH 16 0
BBX 0 0 0 0
BITMAP
ENDCHAR
STARTCHAR period
ENCODING 46
SWIDTH 250 0
DWIDTH 8 0
BBX 6 8 1 0
BITMAP
FC
FC
FC
FC
FC
FC
FC
FC
ENDCHAR
STARTCHAR comma
ENCODING 44
SWIDTH 250 0
DWIDTH 8 0
BBX 6 8 1 0
BITMAP
FC
FC
FC
FC
FC
FC
F8
F0
ENDCHAR
STARTCHAR colon
ENCODING 58
SWIDTH 125 0
DWIDTH 4 0
BBX 2 12 1 9
BITMAP
C0
C0
C0
C0
00
00
00
00
C0
C0
C0
C0
ENDCHAR
STARTCHAR exclam
ENCODING 33
SWIDTH 250 0
DWIDTH 8 0
BBX 6 30 1 0
BITMAP
FC
FC
FC
FC
FC
FC
FC
FC
FC
FC
FC
FC
FC
FC
FC
FC
FC
FC
FC
FC
00
00
FC
FC
FC
FC
FC
FC
FC
FC
ENDCHAR
STARTCHAR question
ENCODING 63
SWIDTH 500 0
DWIDTH 16 0
BBX 14 30 1 0
BITMAP
3FF0
7FF8
FFFC
FFFC
FFFC
FFFC
FCFC
FCFC
FCFC
FCFC
FCFC
FCFC
01FC
07FC
0FF8
0FF0
0FE0
0FC0
0FC0
0FC0
0000
0000
0FC0
0FC0
0FC0
0FC0
0FC0
0FC0
0FC0
0FC0
ENDCHAR
STARTCHAR hyphen
ENCODING 45
SWIDTH 375 0
DWIDTH 12 0
BBX 10 6 1 12
BITMAP
FFC0
FFC0
FFC0
FFC0
FFC0
FFC0
ENDCHAR
STARTCHAR endash
ENCODING 8211
SWIDTH 500 0
DWIDTH 16 0
BBX 14 6 1 12
BITMAP
FFFC
FFFC
FFFC
FFFC
FFFC
FFFC
ENDCHAR
STARTCHAR emdash
ENCODING 8212
SWIDTH 750 0
DWIDTH 24 0
BBX 22 6 1 12
BITMAP
FFFFFC
FFFFFC
FFFFFC
FFFFFC
FFFFFC
FFFFFC
ENDCHAR
STARTCHAR underscore
ENCODING 95
SWIDTH 750 0
DWIDTH 24 0
BBX 22 6 1 0
BITMAP
FFFFFC
FFFFFC
FFFFFC
FFFFFC
FFFFFC
FFFFFC
ENDCHAR
STARTCHAR parenleft
ENCODING 40
SWIDTH 375 0
DWIDTH 12 0
BBX 10 30 1 0
BITMAP
0FC0
3FC0
7FC0
7FC0
FFC0
FBC0
FC00
FC00
FC00
FC00
FC00
FC00
FC00
FC00
FC00
FC00
FC00
FC00
FC00
FC00
FC00
FC00
FC00
FC00
FBC0
FFC0
7FC0
7FC0
3FC0
0FC0
ENDCHAR
STARTCHAR parenright
ENCODING 41
SWIDTH 375 0
DWIDTH 12 0
BBX 10 30 1 0
BITMAP
FC00
FF00
FF80
FF80
FFC0
F7C0
0FC0
0FC0
0FC0
0FC0
0FC0
0FC0
0FC0
0FC0
0FC0
0FC0
0FC0
0FC0
0FC0
0FC0
0FC0
0FC0
0FC0
0FC0
F7C0
FFC0
FF80
FF80
FF00
FC00
ENDCHAR
STARTCHAR braceleft
ENCODING 123
SWIDTH 375 0
DWIDTH 12 0
BBX 10 30 1 0
BITMAP
0FC0
3FC0
7FC0
7FC0
FFC0
FBC0
FC00
FC00
7E00
3F00
0F80
0F80
FF80
FF00
FC00
FC00
FF00
FF80
0F80
0F80
3F00
7E00
FC00
FC00
FBC0
FFC0
7FC0
7FC0
3FC0
0FC0
ENDCHAR
STARTCHAR braceright
ENCODING 125
SWIDTH 375 0
DWIDTH 12 0
BBX 10 30 1 0
BITMAP
FC00
FF00
FF80
FF80
FFC0
F7C0
0FC0
0FC0
1F80
3F00
7C00
7C00
7FC0
3FC0
0FC0
0FC0
3FC0
7FC0
7C00
7C00
3F00
1F80
0FC0
0FC0
F7C0
FFC0
FF80
FF80
FF00
FC00
ENDCHAR
STARTCHAR bracketleft
ENCODING 91
SWIDTH 375 0
DWIDTH 12 0
BBX 10 30 1 0
BITMAP
FFC0
FFC0
FFC0
FFC0
FFC0
FBC0
FC00
FC00
FC00
FC00
FC00
FC00
FC00
FC00
FC00
FC00
FC00
FC00
FC00
FC00
FC00
FC00
FC00
FC00
FBC0
FFC0
FFC0
FFC0
FFC0
FFC0
ENDCHAR
STARTCHAR bracketright
ENCODING 93
SWIDTH 375 0
DWIDTH 12 0
BBX 10 30 1 0
BITMAP
FFC0
FFC0
FFC0
FFC0
FFC0
F7C0
0FC0
0FC0
0FC0
0FC0
0FC0
0FC0
0FC0
0FC0
0FC0
0FC0
0FC0
0FC0
0FC0
0FC0
0FC0
0FC0
0FC0
0FC0
F7C0
FFC0
FFC0
FFC0
FFC0
FFC0
ENDCHAR
STARTCHAR pixel
SWIDTH 31 0
DWIDTH 1 0
BBX 1 1 0 0
BITMAP
00
ENDCHAR
ENDFONT